<?xml version="1.0" encoding="utf-8"?><svg xmlns="http://www.w3.org/2000/svg" xmlns:xlink="http://www.w3.org/1999/xlink"><symbol viewBox="10.589 10.32 46.699 47.375" id="skypeIco" xmlns="http://www.w3.org/2000/svg"><path fill="#FFF" d="M34.533 52.561c-9.387 0-20.053-11.307-19.2-20.694.853-8.96 12.8-17.28 21.653-16 7.787 1.066 14.721 10.88 14.293 18.667-.425 8.212-8.533 18.027-16.746 18.027z"/><path fill="#00AFF0" d="M41.254 57.359c-.641-.213-1.601-.426-2.134-.64-.64-.319-1.387-.319-3.733-.213-2.24.106-3.414 0-5.013-.214C21.84 54.8 15.013 48.613 12.56 40.08c-.427-1.6-.533-2.453-.533-6.293 0-4.161-.107-4.48-.64-6.187-3.093-8.427 3.2-17.28 12.16-17.28 1.813 0 4.053.534 5.333 1.173.854.427 1.387.533 4.693.533 2.987 0 4.16.107 5.653.534 6.721 1.707 12.16 6.08 15.04 12.16 1.813 3.733 2.454 7.574 2.026 11.946-.213 2.348-.213 2.561.32 3.947 1.707 5.014.107 10.773-4.053 14.187-1.281 1.067-3.84 2.24-5.44 2.667-1.601.32-4.16.32-5.761-.107h-.104zm-2.881-8.213c3.521-.746 6.613-2.88 7.787-5.439 1.493-3.094 1.066-6.721-.96-8.961-1.707-1.92-4.267-2.986-10.347-4.479-4.054-.96-5.014-1.387-5.867-2.347-.747-.854-.854-1.493-.213-2.453.64-1.067 2.24-1.707 4.373-1.813 3.094-.213 4.48.533 6.293 3.413 1.387 2.134 2.773 2.667 4.588 1.813 2.346-1.173 2.133-5.013-.428-7.253-2.453-2.026-5.119-2.88-9.6-2.88-4.693 0-7.894.96-10.027 3.093-1.707 1.707-2.026 2.667-2.026 5.333 0 2.773.32 3.626 2.133 5.227 1.92 1.813 3.52 2.454 9.279 3.84 4.054.96 5.121 1.493 6.08 2.56.428.534.641.96.641 1.92 0 1.067-.107 1.28-.96 2.134-1.28 1.279-3.2 1.812-5.653 1.707-2.88-.214-4.16-1.067-5.653-4.054-1.067-2.026-1.92-2.773-3.307-2.773-3.094 0-4.16 2.56-2.56 5.866 1.387 2.881 4.16 4.801 7.68 5.547 2.133.427 6.827.427 8.854 0h-.107z"/></symbol><symbol viewBox="0 0 6 11" id="sliderLA" xmlns="http://www.w3.org/2000/svg"><path xmlns="http://www.w3.org/2000/svg" d="M0 5.478L5.303 0l.654.674-4.651 4.804L6 10.326 5.346 11z"/></symbol><symbol viewBox="0 0 6 11" id="sliderRA" xmlns="http://www.w3.org/2000/svg"><path xmlns="http://www.w3.org/2000/svg" d="M6 5.522L.697 11l-.654-.674 4.651-4.804L0 .674.654 0z"/></symbol><symbol viewBox="0 0 512 512" id="telegramIco" xmlns="http://www.w3.org/2000/svg"><circle cx="256" cy="256" r="256" fill="#59aae7"/><path d="M256 0c-11.317 0-22.461.744-33.391 2.167C348.216 18.53 445.217 125.933 445.217 256s-97.002 237.47-222.609 253.833A258.556 258.556 0 0 0 256 512c141.385 0 256-114.616 256-256S397.385 0 256 0z" fill="#3d9ae3"/><path d="M164.689 311.141L82.127 269.86c-2.263-1.132-2.285-4.353-.038-5.516L395.75 102.105c2.304-1.192 4.964.811 4.456 3.355l-54.004 270.017a3.094 3.094 0 0 1-4.253 2.237l-73.393-31.453a3.093 3.093 0 0 0-2.721.139l-94.839 52.688c-2.062 1.145-4.597-.345-4.597-2.705v-82.474a3.09 3.09 0 0 0-1.71-2.768z" fill="#fcfcfc"/><path d="M200.31 338.967l-.513-82.428a1.504 1.504 0 0 1 .72-1.293l133.899-81.798c1.518-.927 3.106 1.083 1.852 2.345l-101.9 102.624a1.517 1.517 0 0 0-.278.387l-17.43 34.858-13.509 25.988c-.725 1.395-2.831.888-2.841-.683z" fill="#d8d7da"/></symbol><symbol viewBox="0 0 512 512" id="viberIco" xmlns="http://www.w3.org/2000/svg"><rect height="512" rx="64" ry="64" width="512" fill="#7b519d"/><g fill="#fff" fill-rule="evenodd"><path d="M421.915 345.457c-12.198-9.82-25.233-18.634-38.064-27.638-25.59-17.973-48.996-19.37-68.091 9.546-10.723 16.234-25.734 16.945-41.43 9.823-43.27-19.62-76.683-49.85-96.255-93.83-8.658-19.458-8.544-36.903 11.713-50.665 10.725-7.278 21.53-15.89 20.666-31.793-1.128-20.736-51.475-90.033-71.357-97.347-8.227-3.027-16.42-2.83-24.79-.017-46.62 15.678-65.93 54.019-47.437 99.417 55.17 135.442 152.26 229.732 285.91 287.282 7.62 3.277 16.085 4.587 20.371 5.763 30.428.306 66.073-29.01 76.367-58.104 9.911-27.99-11.035-39.1-27.603-52.437zM272.06 77.439c97.707 15.025 142.768 61.485 155.21 159.895 1.154 9.09-2.232 22.768 10.737 23.02 13.554.259 10.288-13.217 10.402-22.316 1.146-92.684-79.669-178.606-173.524-181.774-7.081 1.019-21.733-4.883-22.647 10.988-.609 10.7 11.727 8.942 19.822 10.187z"/><path d="M291.172 104.422c-9.398-1.132-21.805-5.56-24.001 7.48-2.293 13.687 11.535 12.297 20.42 14.286 60.346 13.487 81.358 35.451 91.294 95.311 1.451 8.727-1.432 22.31 13.399 20.059 10.991-1.674 7.021-13.317 7.94-20.118.487-57.47-48.758-109.778-109.052-117.018z"/><path d="M296.713 151.416c-6.273.155-12.43.834-14.736 7.538-3.463 10.02 3.822 12.409 11.237 13.6 24.755 3.974 37.783 18.571 40.256 43.257.668 6.7 4.92 12.129 11.392 11.365 8.969-1.07 9.78-9.053 9.505-16.634.443-27.734-30.904-59.79-57.654-59.126z"/></g></symbol><symbol viewBox="0 0 128 128" id="whatsappIco" xmlns="http://www.w3.org/2000/svg"><g clip-rule="evenodd"><path fill="none" d="M0 0h128v128H0z"/><path d="M46.114 32.509c-1.241-2.972-2.182-3.085-4.062-3.161a36.272 36.272 0 0 0-2.144-.074c-2.446 0-5.003.715-6.546 2.295-1.88 1.919-6.545 6.396-6.545 15.576 0 9.181 6.695 18.06 7.598 19.303.941 1.24 13.053 20.354 31.86 28.144 14.707 6.095 19.071 5.53 22.418 4.816 4.89-1.053 11.021-4.667 12.564-9.03 1.542-4.365 1.542-8.09 1.09-8.88-.451-.79-1.693-1.24-3.573-2.182-1.88-.941-11.021-5.456-12.751-6.058-1.693-.639-3.31-.413-4.588 1.393-1.806 2.521-3.573 5.08-5.003 6.622-1.128 1.204-2.972 1.355-4.514.715-2.069-.864-7.861-2.898-15.008-9.256-5.53-4.928-9.291-11.06-10.381-12.904-1.091-1.881-.113-2.973.752-3.988.941-1.167 1.843-1.994 2.783-3.086.941-1.091 1.467-1.655 2.069-2.935.64-1.241.188-2.521-.263-3.462-.452-.943-4.213-10.124-5.756-13.848zM63.981 0C28.699 0 0 28.707 0 63.999c0 13.996 4.514 26.977 12.187 37.512L4.212 125.29l24.6-7.862C38.93 124.125 51.004 128 64.019 128 99.301 128 128 99.291 128 64.001 128 28.709 99.301.002 64.019.002h-.037V0z" fill="#67C15E" fill-rule="evenodd"/></g></symbol></svg>